<svg xmlns="http://www.w3.org/2000/svg"><symbol id="micropachycephalosaurus" viewBox="0 0 256 256"><path d="M132.2 151.9c-.3 0-.4.2-.4.6h-.1a.5.5 0 0 0-.5.5c0 .4.2.6.5.6s.4-.2.4-.6h.1c.4 0 .5-.2.5-.5s-.1-.6-.5-.6zm1.5-.8a2.4 2.4 0 0 0-.9.8h.3a2 2 0 0 0 1.1-.3 2.4 2.4 0 0 0 .9-.8h-.3a2.3 2.3 0 0 0-1.1.3zm3.1-2.6c-.3 0-.5.2-.5.6h-.1c-.3 0-.4.2-.4.5h-.1c-.4 0-.5.2-.5.6s.1.6.5.6.4-.2.4-.6h.1c.3 0 .5-.2.5-.6h.1c.3 0 .5-.1.5-.5s-.2-.6-.5-.6zm23.3-5.9l-1.3 1.4a2 2 0 0 0 .8 1.1h1.2a2.5 2.5 0 0 0 1.4-.4 6.4 6.4 0 0 0 1-1.3 10 10 0 0 0 .8-1.4c.2-.6.4-1.2.5-1.2h-3.4c-.2.1-.6 1.2-1 1.8z"/><path d="M127.7 1a127.7 127.7 0 1 0 127.6 127.7A127.7 127.7 0 0 0 127.7 1zm95.7 75.7a4.2 4.2 0 0 1-1.6.4h-3.7l-5.2 1.2a18.6 18.6 0 0 0-3.7 1.6 10.7 10.7 0 0 0-2.5 2.2 13.9 13.9 0 0 0-1.7 3 17.6 17.6 0 0 0-1.5 3.9c-.5 1.5-1.1 3.1-1.7 5.1l-1.2 3.4a30.5 30.5 0 0 1-1.3 3.2c-.4 1-.9 2.1-1.4 3.1s-1.1 2.2-1.8 3.3a29 29 0 0 1-2.7 4.1l-2.9 3.7-3.1 3.5c-1.1 1.2-2.1 2.5-3.2 3.9a11.6 11.6 0 0 0-1.4 2.7l-.9 2.5a10.9 10.9 0 0 1-1.4 2.3 6 6 0 0 1-2.5 1.6l-1.3.5-2 .7-2.1.6-1.4.4a2.7 2.7 0 0 1 .2 2.1 2 2 0 0 1-.9.9l-1.2.6a2 2 0 0 0-.9.9l-2.2 6.8a3.3 3.3 0 0 1-1.1 1.5 5.1 5.1 0 0 1-1.8.9 12.3 12.3 0 0 1-2 .2l-1.9-.2h-.8c-.5 0-.9.2-1.1.1s-.4-.3-.4-.9a.4.4 0 0 1 .1-.3c0-.2.1-.2.2-.3l.2-.3c.1-.1.1-.2.1-.4v-.2a21.6 21.6 0 0 0-3.4 1.7 37.9 37.9 0 0 0-3.4 2l-3.4 2.2a23.3 23.3 0 0 1-3.4 2l-.8.5-1.2.5-1 .8a1.5 1.5 0 0 0-.4 1.1v.5l1.8 1.7 2 1.7a15.6 15.6 0 0 0 2 1.6l2.1 1.3a10.6 10.6 0 0 0 1.9.6l1.9.6 1.9.6 1.7.9a6.1 6.1 0 0 1 1.3 1.5l1.2 1.5a7.6 7.6 0 0 0 1.1 1.4 4.7 4.7 0 0 0 1.5 1.3 3.4 3.4 0 0 0 1.6.6l2.1.7a5.2 5.2 0 0 1 1.8 1 2.1 2.1 0 0 1 .8 1.7v.5l-5.7 1.2a3.5 3.5 0 0 0-1.1.3 2 2 0 0 1-1.1.3h-.6l-1.1-.7-1.8-1-1.7-1-1-.7c-.1 0-.1-.1-.2-.3l-.3-.5-.4-.5c-.1-.2-.2-.3-.2-.5l-2.3-4.5-1.2-.4-1.8-.8-2.1-.9-2.2-1-1.8-.8-1.1-.6-2.8-1.6a17.8 17.8 0 0 1-2.6-2.2 10.5 10.5 0 0 1-2-2.7 8.2 8.2 0 0 1-1.1-3.1l-.5.2-.6.4-.9.6-1.7 1.2-2.2 1.4-2.1 1.4-1.8 1.1-.9.5-6 3.5a24.2 24.2 0 0 0-4.6 3.5 17.3 17.3 0 0 0-3.6 4.4c-.9 1.8-.7 4-2.4 6.7v1.6a9.2 9.2 0 0 0 1.2 4.4 6.9 6.9 0 0 0 2.1 2.6 9.4 9.4 0 0 0 2.6 1.4l2.6 1a4.7 4.7 0 0 1 2 1 5.3 5.3 0 0 1 .8 2h-13.5l-.2-.4c-.1-.2-.2-.1-.3-.2h-.5l-.6-.4a2.7 2.7 0 0 1-1.3-1.5 14.2 14.2 0 0 1-.5-2.2c0-.8.2-1.5.2-2.3a21.1 21.1 0 0 0 .3-2.1v-1.5a8.6 8.6 0 0 1 .3-1.7c.2-.8.3-1.7.6-2.7s.4-2.1.7-3.2.6-2.2.8-3.2.5-1.9.7-2.6l.4-1.8a9.3 9.3 0 0 1 .7-2 8.7 8.7 0 0 1 1-1.9 16.1 16.1 0 0 0 4.5-2.6l3.3-3.3 2.9-3.5a17 17 0 0 1 3.4-3.1l1.5-.7 2-.8 2.4-.9 2.1-1.2a5.3 5.3 0 0 0 1.6-1.3 2.5 2.5 0 0 0 .6-1.6v-1.3a1.7 1.7 0 0 0-.6-1.2l-.8-.3-1.2-.5-1.2-.6-.7-.3a9.2 9.2 0 0 1-2.1-1.3l-2.6-1.8a26.3 26.3 0 0 0-2.6-1.6 3.4 3.4 0 0 0-1.7-.6h-8c-6 0-11.9-.1-17.7.1s-11.7.2-17.8.2q-6.6 0-12.9-.3c-4.2-.3-8.3-.7-12.4-1.4a85.5 85.5 0 0 1-12.1-3 63.2 63.2 0 0 1-11.8-5l-1.5-.8-1.6-1-1.3-1.3a3 3 0 0 1-.5-1.6 9.5 9.5 0 0 1 2.1.4l2.4 1a11.2 11.2 0 0 1 2.2 1l1.5.6 4.7 1.7 5.1 1.4a47.6 47.6 0 0 0 5.2 1 27.4 27.4 0 0 0 4.8.4h25.5l1.2-.2 2.6-.3 3.3-.5 3.7-.6 3.4-.7 2.7-.5 6.9-1.4 7.4-1.6c2.5-.6 4.9-1.3 7.3-2.1a58.6 58.6 0 0 0 6.7-2.8l3.8-1.8 3.8-1.6 4-1.4c1.3-.3 2.7-.7 4.2-.9h2.8l1.8-.2h1.1l1.8-.4 3.4-.7 4.1-.9 4.1-.9c1.2-.3 2.3-1 3.3-1.2s1.6-.7 1.9-.7h6.6c2.7 0 5.4.5 7.9.7s5.2.5 7.9.5a10.1 10.1 0 0 0 5.1-1.2 21 21 0 0 0 4.5-3.5 39.2 39.2 0 0 0 3.9-5q1.8-2.9 3.3-5.7a53.8 53.8 0 0 0 2.5-5.6 37.3 37.3 0 0 0 1.8-4.8c.5-1.2.8-2.4 1.2-3.5a29.9 29.9 0 0 1 1-3.2 12.3 12.3 0 0 1 1.2-2.6 6.8 6.8 0 0 1 1.8-2 6.8 6.8 0 0 1 2.6-1.6 12.7 12.7 0 0 1 3.8-.8h3.1c.8 1.7 1.8.9 3 1.3a22.1 22.1 0 0 1 3.5 1.6 10.9 10.9 0 0 1 3 1.8 2.8 2.8 0 0 1 1.3 2.2 2 2 0 0 1-.5 1.4 3.1 3.1 0 0 1-1.1.5z"/></symbol><symbol id="brachiosaurus" viewBox="0 0 256 256"><path d="M59.1 166.9a37.9 37.9 0 0 0-7.7.8c0 .1 0 .1-.1.2 0 .3.3.6.8 1l2 1 2.7 1 2.8.8 2.4.6 1.5.3h2.1a11.9 11.9 0 0 0 2.6-.5l2.3-.8a4.2 4.2 0 0 0 1.7-1.5 26.9 26.9 0 0 0-6.4-2.2 29.9 29.9 0 0 0-6.7-.7z"/><path d="M128.3 0A127.7 127.7 0 1 0 256 127.7 127.6 127.6 0 0 0 128.3 0zm83.3 70.4v.4a9.5 9.5 0 0 1-.1 1.4l-.3 2.1a15.5 15.5 0 0 0-.4 2.1c-.1.6-.2 1.1-.2 1.3a7.6 7.6 0 0 0-.9 1.8 15.9 15.9 0 0 0-.7 2l-.6 2a11.8 11.8 0 0 1-.7 2 30.7 30.7 0 0 1-1.7 3.1 21.1 21.1 0 0 0-1.6 3l-20 27.9-.2.5-.3.3-.3.3a1.1 1.1 0 0 0-.4.5l-1.7 2.2-2.1 2.9c-.7 1.1-1.4 2.2-2.2 3.3s-1.4 2.2-2 3.3l-1.4 2.9a8.6 8.6 0 0 0-.5 2.4c0 .3-.2.5-.2.7s.2.4.2.7c-.2.1-.3.2-.3.4s.1.4.3.4v10.2a3.6 3.6 0 0 1-.2 1 5.6 5.6 0 0 0-.4 1.2 6.7 6.7 0 0 0-.6 1.2c-.1.4-.5.8-.5 1.1v1.7c0 .1.2.2 0 .4s-.2.5-.4.8l-.7.8c-.2.3-.5.4-.5.5v.4s.7.2.8.4.8.3.8.4v2.8a22.5 22.5 0 0 1-.6 3.6c-.2 1.2-.5 2.3-.8 3.5l-.6 3.5a22.1 22.1 0 0 0-.4 3.5c0 2.2.1 4.3.3 6.4s.6 4.1 1.1 6.2a35.4 35.4 0 0 0 2.2 5.7 21.7 21.7 0 0 0 3.4 5.3 4.9 4.9 0 0 1-1.3.8l-1.7.7-1.7.5h-1.9l-1-.2-1.2-.3-1-.2h-.8l-.7-.3-.6-.5a1.6 1.6 0 0 1-.4-.7 27.5 27.5 0 0 0 .2-4.1l-.3-4.3c-.2-1.4-.4-2.8-.5-4.3l-.6-4.1-.2-.6c-.1-.3-.1-.5-.2-.6s.1-2.3.1-3.7 0-2.7-.1-4a25.7 25.7 0 0 0-.6-4 11.6 11.6 0 0 0-1.4-3.4 2.8 2.8 0 0 0-1.5 1.8 17.3 17.3 0 0 0-.8 2.7c-.2 1-.2 1.9-.4 2.9s-1 1.7-1 2.3v1.6a16.2 16.2 0 0 1 0 2.2v3.8c0 2.9-.2 5.7-.1 8.4a77.2 77.2 0 0 0 .6 8.2l.4.3.8.6.8.7c.3.3.4.5.4.7s-.3.5-.8.8l-1.9.8-2 .9-1.3.4h-.2l-4.8-2.6a.6.6 0 0 1-.2-.5v-.6a29.9 29.9 0 0 1 0-3 14.2 14.2 0 0 0 .2-3 23.3 23.3 0 0 0-.4-3.8c-.1-1.3-.3-2.5-.5-3.8a23.8 23.8 0 0 1-.6-3.7 26 26 0 0 1-.3-4c0-1.2 0-2.3.1-3.3a23.6 23.6 0 0 1 .4-2.8c.1-.9.3-1.8.5-2.8s.4-2 .7-3.2a2 2 0 0 0-.1-.7 2.8 2.8 0 0 1-.1-.8l-1.9.3-1.8.5-2 .6-1.9.5-1.4.2h-1c-.4.1-.7-.1-1-.1h-2.9a46.4 46.4 0 0 1-5.3-.1 46 46 0 0 0-5.3-.1h-2.4a4.1 4.1 0 0 0-2.4.8 45.1 45.1 0 0 1 0 5.2c0 1.8-.1 3.5-.1 5.2l-.3 5.1c-.1 1.7-.2 3.4-.2 5.2v2.5a8.5 8.5 0 0 1 0 1.6v1c0 .6.7 1.1 1.2 1.7a20.9 20.9 0 0 0 1.4 1.7l1.2 1.8a4.1 4.1 0 0 1 .5 1.8v.4a11.2 11.2 0 0 1-4.1.4c.1.4 0 .7-.2.8h-2.8a7.8 7.8 0 0 1-2.2-.3 4.6 4.6 0 0 1-1.9-.8 2.4 2.4 0 0 1-.7-1.9 6.2 6.2 0 0 1 .1-1.3l.3-1.3a6.1 6.1 0 0 0 .3-1.3 6.8 6.8 0 0 0 .2-1.4 23.4 23.4 0 0 0-.3-3.8c-.2-1.3-.4-2.5-.7-3.7s-.5-2.6-.8-3.8a29.6 29.6 0 0 1-.7-4h-.4c-.2 0-.4.8-.5.9a2.5 2.5 0 0 0-.4.7l-.4.6-1.5 2.2c-.6.8-1 1.6-1.5 2.3a18.9 18.9 0 0 0-1.1 2.5 7.7 7.7 0 0 0-.4 2.7 4.5 4.5 0 0 0 .3 1.6l.8 1.5a6.3 6.3 0 0 0 .7 1.2 1.5 1.5 0 0 1 .3.6.8.8 0 0 1-.4.7l-1 .5-1.3.2h-4.4l-1.1-.4a2.2 2.2 0 0 1-.7-.9 10.3 10.3 0 0 1-.5-1.6 9.8 9.8 0 0 1-.5-1.6 4.7 4.7 0 0 1-.3-1.7 3.4 3.4 0 0 1 .4-1.5l.9-1.6a9.1 9.1 0 0 0 1.1-1.6 7 7 0 0 0 .8-1.4c.9-2 1.7-4 2.5-5.9s1.6-4 2.5-6l.4-.7.6-.7a3 3 0 0 0 .4-.8 1.9 1.9 0 0 0 .2-.8q0-.6-.3-.6H103l-9.1 2.4a2.7 2.7 0 0 1-1.3.5l-1.8.4-1.5.6a1.1 1.1 0 0 0-.7 1.1 2.9 2.9 0 0 0 .2.9l.7.6.8.6.8.6-.4.4-1.3-.8-1.4-.8-1.5-.7-1.6-.2a17.3 17.3 0 0 0-3.8.5l-4 1.2-4.1 1.1a15.1 15.1 0 0 1-4.2.5 18.5 18.5 0 0 1-3.5-.4 37 37 0 0 1-4.9-1.1l-5.4-1.8a25.9 25.9 0 0 1-5-2.2 14.2 14.2 0 0 1-3.7-2.7 4.3 4.3 0 0 1-1.5-3 4.9 4.9 0 0 1 1.1-3.3 7.1 7.1 0 0 1 2.8-1.6c1.1-.4 2.3-.1 3.5-.2s2.4.4 3.4.4h4a1.9 1.9 0 0 1 1.2-.3 23.2 23.2 0 0 1 2.4.2l2.6.3 1.9.2a6.6 6.6 0 0 1 2 .6l1.8.8 1.8.8a6.4 6.4 0 0 0 2 .3 8.8 8.8 0 0 0 4-1 47.8 47.8 0 0 0 4.2-2.6l3.9-3.1 3.3-2.8 1.8-1.2 1.9-1.1a10.9 10.9 0 0 0 1.7-1.3 5 5 0 0 0 1.5-1.7 33.5 33.5 0 0 0 2.7-4.5 20.7 20.7 0 0 1 2.7-4.5l1.3-1.3 1.5-1 1.7-.9 1.6-.9 3.6-2.6 3.5-3 3.4-3 3.4-2.9a28.8 28.8 0 0 1 3.8-2.2l4-1.8 2.5-1.3 2.4-1.3a15.1 15.1 0 0 1 2.6-1.2 13.4 13.4 0 0 1 2.7-.7l22.5-3.3a11 11 0 0 0 3.5-1.1 24.6 24.6 0 0 0 3.4-2.2l3.2-2.9 2.9-3.3 2.7-3.2 2.3-2.9 7.8-9 .3-.2.5-.6.6-.5.2-.3 2.1-3.3h.2l.4-.3.4-.2.2-.2.4-.4.4-.4 1.3-1.7 1.3-2 1.4-2a9.5 9.5 0 0 0 .9-1.7 8.8 8.8 0 0 0 .9-2c.2-.7.5-1.4.7-2.2s.5-1.4.8-2.2 1-1.4 1-2.2v-6.2a5.3 5.3 0 0 0-1.1-3.1 9.6 9.6 0 0 0-2.7-2.6 11.1 11.1 0 0 0-3.4-1.8 7.7 7.7 0 0 0-3.2-.7 22 22 0 0 0-5.8.7 12.2 12.2 0 0 0-5.2 2.6 18.4 18.4 0 0 0-1.4 1.4l-1.6 1.9-1.8 2-1.8 1.9a16.2 16.2 0 0 1-1.9 1.3 4.1 4.1 0 0 1-1.8.5 1.7 1.7 0 0 1-1.6-1.6v-.4a1.1 1.1 0 0 1 .1-.5c0-.3.1-.5.1-.8a2.4 2.4 0 0 0 .2-.8 1 1 0 0 1 .1-.4 4.3 4.3 0 0 0-.3-1.7l-.6-1.4-.6-1.2a2.5 2.5 0 0 1-.2-1.2 1 1 0 0 0 .8-.3l.5-.6a3 3 0 0 1 .4-.8 2.8 2.8 0 0 1 .8-.6h2.8a1.3 1.3 0 0 0 1-.4l.7-.7h.4c.1 0 .2.2.2.3l.2.5c.1-.2.2-.4.4-.4l.7-.4 1.1-.6 1.3-.8 1.4-.8 1.1-.7.6-.4 2.1-1.3a5.8 5.8 0 0 1 1.7-.6l2-.2h6.5a3.5 3.5 0 0 0 1.4.6l1.6.3 1.5.3 1.6.5a16.6 16.6 0 0 1 4.6 3 19.2 19.2 0 0 1 3.2 4.3 19.6 19.6 0 0 1 1.7 5 25.6 25.6 0 0 1 .5 5.5v2.3z"/></symbol><symbol id="velociraptor" viewBox="0 0 256 256"><path d="M128 0a127.7 127.7 0 1 0 127.7 127.7A127.7 127.7 0 0 0 128 0zm110.4 116.5H231c-3.1 0-6.1-.1-9.2-.4l-9.1-1-9.1-.9c-3.1-.3-6.2-.5-9.3-.5a128.5 128.5 0 0 0-16.3 1 76.7 76.7 0 0 0-15.9 3.7l-30.7 11.1a2.7 2.7 0 0 0-1.2 1.6 17.3 17.3 0 0 0-.8 2.7l-.6 2.9a8.5 8.5 0 0 1-.6 1.9 2.9 2.9 0 0 0 1.3 1.4l2.5 1 2.9 1.2a15.1 15.1 0 0 1 2.8 1.5 9.1 9.1 0 0 1 2.1 1.8 4.4 4.4 0 0 1 .8 2.5 1.7 1.7 0 0 1-.5 1.2 3.8 3.8 0 0 1-1.2.9l-1.6.7-1.6.8a6.9 6.9 0 0 0-1.3 1.1 2.5 2.5 0 0 0-.5 1.5 3.7 3.7 0 0 0 .8 2.5 7.8 7.8 0 0 0 2 1.6l2.3 1.4a6.2 6.2 0 0 1 2.2 1.7 17.5 17.5 0 0 1 2 3.5 16.3 16.3 0 0 1 1.3 3.7c.3 1.2.6 2.5.8 3.8s.1 2.7.2 4l1.4 1.3v7.2h.8l1.1.2.9.2.6.2a4.4 4.4 0 0 1 .1.9c0 .2-.1.5-.1.9a5 5 0 0 1-.4 1.3c-.1.4-.4.6-.6.9a1 1 0 0 1-.9.3h-5.2c-.2 0-.5-.5-1-.8l-1.5-.8a11.9 11.9 0 0 0-1.6-.8c-.5-.3-.9-.9-1.1-.9h-6.2a5.2 5.2 0 0 1 .6-3 4.9 4.9 0 0 1 1.7-1.5 8.6 8.6 0 0 1 2.1-.7l2.1-.3 1.7-.6a1.7 1.7 0 0 0 .6-1.4v-.6c-.2-.5-.5-1-.9-1.8s-.8-1.6-1.3-2.4a12.8 12.8 0 0 0-1.5-2.5 10.1 10.1 0 0 0-1.5-1.8 4.9 4.9 0 0 0-1.3-.8l-1.9-1a10.8 10.8 0 0 1-1.8-1.1 1.9 1.9 0 0 1-.9-1.1 16.3 16.3 0 0 1-1-2.9 17.3 17.3 0 0 0-1.1-3.2 6.9 6.9 0 0 0-1.7-2.6 4 4 0 0 0-2.9-1.1 25.5 25.5 0 0 0-6.1.8 23.5 23.5 0 0 0-5.7 2.3 24.5 24.5 0 0 0-5 3.4 24.9 24.9 0 0 0-4 4.6c0 .2-.2.2-.3.2h-.2a.3.3 0 0 1-.1-.2c-.1 0-.1-.1-.2-.3a1.4 1.4 0 0 0-.2-.6c0-.2-.1-.5-.1-.6l-.2-.4h-.3a1.3 1.3 0 0 0-1 .4l-.9 1.2-.8 1.3a3 3 0 0 1-.9 1 3.2 3.2 0 0 1-.6-1.6 8.6 8.6 0 0 1-.1-1.7 9.2 9.2 0 0 1 .4-2.9l.9-2.8c.3-.9.6-1.6.9-2.6a14.1 14.1 0 0 0 .4-2.7h-4.9c0-1.7.2-1.8.7-2.4a4.9 4.9 0 0 1 1.6-1.6 6.7 6.7 0 0 1 2.1-.9l2.1-.3a15.6 15.6 0 0 1 3.1.2l2.9.5 2.9.4a15.1 15.1 0 0 0 3 .2h2.3a2.6 2.6 0 0 0-1.7-1.4l-2.6-.5-2.7-.2c-.9 0-1.6.2-2.2-.2l-3.9-2.2h-.3a17.1 17.1 0 0 0-3.2 0 10.6 10.6 0 0 1-3.1.2 7.3 7.3 0 0 1-3-.7l-2.7-1.4-2.6-1.4a5.2 5.2 0 0 0-2.9-.6v6.1l1.6-.2 1-.3.9-.5.9-.7h.6v2.8l2-.7c0 .1.2.3.2.5a4.3 4.3 0 0 0 .1.5 5.6 5.6 0 0 1-1.3 3.9 22.6 22.6 0 0 1-3.2 2.9 27.5 27.5 0 0 0-4.7-1.3l-4.8-.6v-8l-1.7.6-2.1 1-1.9 1.2c-.5.4-.9.8-.9 1.2v6.9a10.1 10.1 0 0 0 3-.3l1.8-.6 1.2-.6a2.8 2.8 0 0 1 1.3-.3h.3c.1.1.1.3.3.7a11.2 11.2 0 0 0 .5 1.3l.3 1.3a1.8 1.8 0 0 1 .2.9 4.3 4.3 0 0 1-.4 1.9 5.2 5.2 0 0 1-1.1 1.9 4.7 4.7 0 0 1-1.5 1.3 3.2 3.2 0 0 1-1.8.6h-1.1l-3-.4a20.9 20.9 0 0 1-3.6-.8 14.2 14.2 0 0 1-3.3-1.2 2.5 2.5 0 0 1-1.5-2.1v-11.8c0-.2.4-.4.9-.9a20.2 20.2 0 0 0 1.9-1.6l2.4-2.2a18.8 18.8 0 0 0 2.4-2.5 21.1 21.1 0 0 0 1.8-2.7 5.6 5.6 0 0 0 .8-2.6 3.9 3.9 0 0 0-1.2-2.8 15.5 15.5 0 0 0-2.8-2 23.3 23.3 0 0 0-3.3-1.4l-2.5-.9-1.4-9.2a16.8 16.8 0 0 0-.6-2.7 8.1 8.1 0 0 0-1.1-2.7 6.5 6.5 0 0 0-1.8-2.2 3.9 3.9 0 0 0-2.6-.9 13.8 13.8 0 0 0-3.7.5 13 13 0 0 0-3.2 1.5l-1.7 1-2.5 1.5-3 1.8-3 1.7-2.5 1.7c-.8.4-1.3 1.1-1.7 1.1h-1l-1.7-.2-2.1-.4a3.1 3.1 0 0 1-1.4-.7c-.4-.4-.3-.9-.3-1.4v-1.9c0-.6-.2-.9 0-.9h1.6s-.1-.1 0-.4.1-.5.2-.8.1-.6.1-.9a1.1 1.1 0 0 0 .1-.5l-.9-.8-.8-.5a1.6 1.6 0 0 1-.7-.7 1.7 1.7 0 0 1-.3-1.2 5 5 0 0 1 .2-1.2 7.5 7.5 0 0 1 .7-1.2c.3-.3.3-.6.6-.8a2.5 2.5 0 0 1 .8-.4v.8c0 .5.5 1 .6 1.5a1.2 1.2 0 0 0 1.2.7 1.4 1.4 0 0 0 1.1-.5 5.2 5.2 0 0 0 1-1.1 10.4 10.4 0 0 0 .6-1.6c.2-.5.3.2.3-1.4H21.1a2.1 2.1 0 0 1-.9-.5l-1-.7a3.6 3.6 0 0 1-.9-.8 1.3 1.3 0 0 1-.4-1 4.2 4.2 0 0 1 1.1-3.2 6.1 6.1 0 0 1 2.6-1.8 15 15 0 0 1 3.2-1l2.8-.9 2.2-.9 3.4-1.5 3.4-1.6a7.1 7.1 0 0 1 2.2-1.1h13.6a7.1 7.1 0 0 1 3.9 1 12.6 12.6 0 0 1 3.1 2.5 21 21 0 0 1 2.6 3.2c.8 1.2 1.5 2.3 2.3 3.3a15.1 15.1 0 0 0 2.3 2.6 3.5 3.5 0 0 0 2.5 1 .9.9 0 0 0 .8-.4.9.9 0 0 1 .8-.4 4 4 0 0 1 1.5.3l1.6.8 1.5.7a4.1 4.1 0 0 0 1.6.3l4.1-.2 4.1-.5 4.1-.5 4.2-.2a58.5 58.5 0 0 1 7.3.4 40.8 40.8 0 0 1 7.2 1.6 53.8 53.8 0 0 1 5.1 2l5.1 2.2a32.7 32.7 0 0 0 5.3 1.7 20 20 0 0 0 5.4.7h2.6l13-2.7c4.3-.9 8.6-1.6 12.8-2.3s8.7-1.2 13-1.6 8.7-.5 13.2-.5h8.9c1.8.1 3.5.7 5 .9l36.6 7.3h11.7c-.8 0-1.8 1-3.1 1.4a27.5 27.5 0 0 1-4.1.2z"/></symbol></svg>